<?xml version="1.0" standalone="no"?>
<!DOCTYPE svg PUBLIC "-//W3C//DTD SVG 20010904//EN"
 "http://www.w3.org/TR/2001/REC-SVG-20010904/DTD/svg10.dtd">
<svg version="1.0" xmlns="http://www.w3.org/2000/svg"
 width="30.000000pt" height="30.000000pt" viewBox="0 0 30.000000 30.000000"
 preserveAspectRatio="xMidYMid meet">

<g transform="translate(0.000000,30.000000) scale(0.100000,-0.100000)"
fill="#000000" stroke="none">
<path d="M80 263 c-49 -34 -74 -88 -49 -104 12 -8 12 -10 0 -18 -19 -12 -7
-52 25 -85 33 -32 73 -44 85 -25 8 12 10 12 18 0 12 -19 52 -7 85 25 32 33 44
73 25 85 -12 8 -12 10 0 18 19 12 7 52 -25 85 -33 33 -72 44 -86 25 -7 -11
-11 -11 -15 -1 -7 17 -34 15 -63 -5z m150 -39 c0 -3 -14 -25 -30 -49 -29 -43
-116 -112 -126 -102 -11 11 53 92 96 123 44 33 60 40 60 28z"/>
<path d="M127 136 c-4 -10 -1 -13 9 -9 15 6 19 23 5 23 -5 0 -11 -7 -14 -14z"/>
</g>
</svg>
